<svg width="375" height="667" viewBox="0 0 375 667" version="1.1" xmlns="http://www.w3.org/2000/svg" xmlns:xlink="http://www.w3.org/1999/xlink">
<title>Main</title>
<desc>Created using Figma</desc>
<g id="Canvas" transform="translate(-4109 854)">
<rect x="4109" y="-854" width="375" height="667" fill="#FFFFFF"/>
<g id="Index">
<g id="Background">
<use xlink:href="#path0_fill" transform="translate(-7656 -8143)" fill="#121212"/>
</g>
</g>
<clipPath id="clip-0" clip-rule="evenodd">
<path d="M 4109 -854L 4484 -854L 4484 -187L 4109 -187L 4109 -854Z" fill="#FFFFFF"/>
</clipPath>
<g id="Transactions Add New Page/Main" clip-path="url(#clip-0)">
<path d="M 4109 -854L 4484 -854L 4484 -187L 4109 -187L 4109 -854Z" fill="#FFFFFF"/>
<clipPath id="clip-1" clip-rule="evenodd">
<path d="M 4109 -834L 4484 -834L 4484 -770L 4109 -770L 4109 -834Z" fill="#FFFFFF"/>
</clipPath>
<g id="Top Bars/Back-Title-Select" clip-path="url(#clip-1)">
<g id="Background" filter="url(#filter0_d)">
<use xlink:href="#path1_fill" transform="translate(4109 -834)" fill="#F9F9F9" fill-opacity="0.9"/>
</g>
<g id="Top Bar">
<g id="Title">
<use xlink:href="#path2_fill" transform="translate(4203 -802)"/>
</g>
</g>
<clipPath id="clip-2" clip-rule="evenodd">
<path d="M 4116 -802L 4129 -802L 4129 -781L 4116 -781L 4116 -802Z" fill="#FFFFFF"/>
</clipPath>
<g id="Icons/Top Bar/Back Arrow" clip-path="url(#clip-2)">
<g id="Back Arrow Blue">
<g id="Back">
<use xlink:href="#path3_fill" transform="translate(4116 -802)" fill="#007AFF"/>
</g>
</g>
</g>
<g id="Save Button">
<use xlink:href="#path4_fill" transform="translate(4434 -802)" fill="#007AFF"/>
</g>
</g>
<clipPath id="clip-3" clip-rule="evenodd">
<path d="M 4109 -236L 4484 -236L 4484 -187L 4109 -187L 4109 -236Z" fill="#FFFFFF"/>
</clipPath>
<g id="Button Row 2" clip-path="url(#clip-3)">
<path d="M 4109 -236L 4484 -236L 4484 -187L 4109 -187L 4109 -236Z" fill="#FFFFFF"/>
<g id="Split Button">
<use xlink:href="#path5_fill" transform="translate(4271 -222)" fill="#007AFF"/>
</g>
</g>
<clipPath id="clip-4" clip-rule="evenodd">
<path d="M 4109 -284L 4484 -284L 4484 -236L 4109 -236L 4109 -284Z" fill="#FFFFFF"/>
</clipPath>
<g id="Button Row 1" clip-path="url(#clip-4)">
<path d="M 4109 -284L 4484 -284L 4484 -236L 4109 -236L 4109 -284Z" fill="#FFFFFF"/>
<g id="Choose Date Button">
<use xlink:href="#path6_fill" transform="translate(4174 -270)" fill="#007AFF"/>
</g>
</g>
<clipPath id="clip-5" clip-rule="evenodd">
<path d="M 4109 -447L 4484 -447L 4484 -284L 4109 -284L 4109 -447Z" fill="#FFFFFF"/>
</clipPath>
<g id="Info Entry" clip-path="url(#clip-5)">
<path d="M 4109 -447L 4484 -447L 4484 -284L 4109 -284L 4109 -447Z" fill="#FFFFFF"/>
<clipPath id="clip-6" clip-rule="evenodd">
<path d="M 4218 -391L 4484 -391L 4484 -343L 4218 -343L 4218 -391Z" fill="#FFFFFF"/>
</clipPath>
<g id="Transaction/Amount" clip-path="url(#clip-6)">
<path d="M 4218 -391L 4484 -391L 4484 -343L 4218 -343L 4218 -391Z" fill="#FFFFFF"/>
<g id="Amount Field">
<use xlink:href="#path7_fill" transform="translate(4291 -378)" fill="#CDCED2"/>
</g>
<g id="Currency Field">
<use xlink:href="#path8_fill" transform="translate(4228 -378)" fill="#CDCED2"/>
</g>
</g>
<g id="Name Field">
<use xlink:href="#path9_fill" transform="translate(4229 -423)" fill="#CDCED2"/>
</g>
<g id="Category Field">
<use xlink:href="#path10_fill" transform="translate(4228 -333)" fill="#CDCED2"/>
</g>
<clipPath id="clip-7" clip-rule="evenodd">
<path d="M 4132 -412L 4203 -412L 4203 -311L 4132 -311L 4132 -412Z" fill="#FFFFFF"/>
</clipPath>
<g id="Transaction/Icon" clip-path="url(#clip-7)">
<path d="M 4132 -412L 4203 -412L 4203 -311L 4132 -311L 4132 -412Z" fill="#FFFFFF"/>
<g id="UIImageView">
<use xlink:href="#path11_fill" transform="translate(4132 -412)" fill="#C4C4C4"/>
</g>
<g id="Icon">
<use xlink:href="#path12_fill" transform="translate(4150 -372)" fill="#FFFFFF"/>
</g>
</g>
</g>
<clipPath id="clip-8" clip-rule="evenodd">
<path d="M 4109 -722L 4484 -722L 4484 -447L 4109 -447L 4109 -722Z" fill="#FFFFFF"/>
</clipPath>
<g id="Receipt Image" clip-path="url(#clip-8)">
<path d="M 4109 -722L 4484 -722L 4484 -447L 4109 -447L 4109 -722Z" fill="#FFFFFF"/>
<g id="UIImageView">
<use xlink:href="#path13_fill" transform="translate(4109 -722)" fill="#C4C4C4"/>
</g>
<g id="Receipt Image View">
<use xlink:href="#path14_fill" transform="translate(4218 -595)" fill="#FFFFFF"/>
</g>
</g>
<clipPath id="clip-9" clip-rule="evenodd">
<path d="M 4109 -770L 4484 -770L 4484 -722L 4109 -722L 4109 -770Z" fill="#FFFFFF"/>
</clipPath>
<g id="Transaction/Add Receipt" clip-path="url(#clip-9)">
<path d="M 4109 -770L 4484 -770L 4484 -722L 4109 -722L 4109 -770Z" fill="#FFFFFF"/>
<g id="Text">
<use xlink:href="#path15_fill" transform="translate(4123 -753)"/>
</g>
<clipPath id="clip-10" clip-rule="evenodd">
<path d="M 4378 -759L 4413 -759L 4413 -731L 4378 -731L 4378 -759Z" fill="#FFFFFF"/>
</clipPath>
<g id="Icons/Misc/Camera" clip-path="url(#clip-10)">
<g id="Camera Icon">
<use xlink:href="#path16_fill" transform="translate(4378 -759)"/>
</g>
</g>
<clipPath id="clip-11" clip-rule="evenodd">
<path d="M 4431.5 -759L 4468.5 -759L 4468.5 -731L 4431.5 -731L 4431.5 -759Z" fill="#FFFFFF"/>
</clipPath>
<g id="Icons/Misc/Library" clip-path="url(#clip-11)">
<g id="Library Icon">
<use xlink:href="#path17_fill" transform="translate(4431.5 -759)"/>
</g>
</g>
</g>
<g id="Top Bar">
<g id="Status Bar / Black">
<g id="Background">
<use xlink:href="#path18_fill" transform="translate(4109 -854)" fill="#000000" fill-opacity="0.01"/>
</g>
<g id="Charge">
<g id="Battery Icon">
<g id="Shape">
<use xlink:href="#path19_fill" transform="translate(4454 -848.5)"/>
</g>
<g id="Charge">
<use xlink:href="#path20_fill" transform="translate(4455 -847.5)"/>
</g>
<g id="Shape">
<use xlink:href="#path21_fill" transform="translate(4477 -845.5)"/>
</g>
</g>
<g id="58 %">
<use xlink:href="#path22_fill" transform="translate(4423 -851)"/>
</g>
</g>
<g id="Bluetooth Icon" opacity="0.4">
<use xlink:href="#path23_fill" transform="translate(4409 -850)"/>
</g>
<g id="9:41">
<use xlink:href="#path24_fill" transform="translate(4273 -851)"/>
</g>
<g id="Wifi">
<use xlink:href="#path25_fill" transform="translate(4173 -848)"/>
</g>
<g id="GS">
<use xlink:href="#path26_fill" transform="translate(4153 -851)"/>
</g>
<g id="Signal">
<g id="Circle">
<use xlink:href="#path27_fill" transform="translate(4144 -846)"/>
</g>
<g id="Circle">
<use xlink:href="#path27_fill" transform="translate(4137 -846)"/>
</g>
<g id="Oval">
<use xlink:href="#path28_fill" transform="translate(4130 -846)"/>
</g>
<g id="Oval">
<use xlink:href="#path28_fill" transform="translate(4123 -846)"/>
</g>
<g id="Oval">
<use xlink:href="#path28_fill" transform="translate(4116 -846)"/>
</g>
</g>
</g>
</g>
</g>
</g>
<defs>
<filter id="filter0_d" filterUnits="userSpaceOnUse" x="4109" y="-834" width="375" height="64" color-interpolation-filters="sRGB">
<feFlood flood-opacity="0" result="BackgroundImageFix"/>
<feColorMatrix in="SourceAlpha" type="matrix" values="0 0 0 0 0 0 0 0 0 0 0 0 0 0 0 0 0 0 255 0"/>
<feOffset dx="0" dy="0.5"/>
<feColorMatrix type="matrix" values="0 0 0 0 0 0 0 0 0 0 0 0 0 0 0 0 0 0 0.3 0"/>
<feBlend mode="normal" in2="BackgroundImageFix" result="effect1_dropShadow"/>
<feBlend mode="normal" in="SourceGraphic" in2="effect1_dropShadow" result="shape"/>
</filter>
<path id="path0_fill" fill-rule="evenodd" d="M 0 0L 17246 0L 17246 18368L 0 18368L 0 0Z"/>
<path id="path1_fill" fill-rule="evenodd" d="M 0 0L 375 0L 375 64L 0 64L 0 0Z"/>
<path id="path2_fill" d="M 17.8711 16L 20.1704 16L 15.9121 4.02197L 13.5049 4.02197L 9.25491 16L 11.4214 16L 12.4507 12.937L 16.8584 12.937L 17.8711 16ZM 14.5923 6.30469L 14.7334 6.30469L 16.3604 11.2437L 12.9488 11.2437L 14.5923 6.30469ZM 24.3943 16.1494C 25.656 16.1494 26.7019 15.5601 27.2165 14.564L 27.3576 14.564L 27.3576 16L 29.3498 16L 29.3498 3.40771L 27.2912 3.40771L 27.2912 8.36328L 27.1501 8.36328C 26.6687 7.36719 25.6394 6.76953 24.3943 6.76953C 22.1033 6.76953 20.6589 8.5791 20.6589 11.4512C 20.6589 14.3398 22.095 16.1494 24.3943 16.1494ZM 25.0334 8.521C 26.4446 8.521 27.3161 9.6499 27.3161 11.4595C 27.3161 13.2856 26.4529 14.3979 25.0334 14.3979C 23.6223 14.3979 22.7673 13.2939 22.7673 11.4595C 22.7673 9.6333 23.6306 8.521 25.0334 8.521ZM 34.8271 16.1494C 36.0888 16.1494 37.1347 15.5601 37.6494 14.564L 37.7905 14.564L 37.7905 16L 39.7827 16L 39.7827 3.40771L 37.7241 3.40771L 37.7241 8.36328L 37.5829 8.36328C 37.1015 7.36719 36.0722 6.76953 34.8271 6.76953C 32.5361 6.76953 31.0917 8.5791 31.0917 11.4512C 31.0917 14.3398 32.5278 16.1494 34.8271 16.1494ZM 35.4662 8.521C 36.8774 8.521 37.749 9.6499 37.749 11.4595C 37.749 13.2856 36.8857 14.3979 35.4662 14.3979C 34.0551 14.3979 33.2001 13.2939 33.2001 11.4595C 33.2001 9.6333 34.0634 8.521 35.4662 8.521ZM 48.3797 16L 48.3797 7.84863L 48.5209 7.84863L 54.3978 16L 56.2489 16L 56.2489 4.02197L 54.1903 4.02197L 54.1903 12.165L 54.0492 12.165L 48.1722 4.02197L 46.3128 4.02197L 46.3128 16L 48.3797 16ZM 62.3985 8.37158C 63.6353 8.37158 64.4488 9.23486 64.4903 10.5796L 60.2154 10.5796C 60.3067 9.25146 61.17 8.37158 62.3985 8.37158ZM 64.5069 13.5015C 64.2081 14.1738 63.5025 14.5474 62.4815 14.5474C 61.1285 14.5474 60.2569 13.6011 60.2071 12.0903L 60.2071 11.9824L 66.5489 11.9824L 66.5489 11.3184C 66.5489 8.45459 64.9966 6.73633 62.4068 6.73633C 59.7755 6.73633 58.1402 8.5708 58.1402 11.4927C 58.1402 14.4146 59.7505 16.1826 62.4234 16.1826C 64.565 16.1826 66.0674 15.1533 66.4576 13.5015L 64.5069 13.5015ZM 80.2522 6.91895L 78.2019 6.91895L 76.6995 13.7007L 76.5584 13.7007L 74.7986 6.91895L 72.8313 6.91895L 71.0882 13.7007L 70.947 13.7007L 69.4363 6.91895L 67.3611 6.91895L 69.8181 16L 71.9597 16L 73.7195 9.45898L 73.8606 9.45898L 75.6287 16L 77.7952 16L 80.2522 6.91895ZM 91.1071 16L 91.1071 5.87305L 94.801 5.87305L 94.801 4.02197L 85.28 4.02197L 85.28 5.87305L 88.9655 5.87305L 88.9655 16L 91.1071 16ZM 95.3559 16L 97.4145 16L 97.4145 10.7539C 97.4145 9.48389 98.3441 8.65381 99.6806 8.65381C 100.029 8.65381 100.577 8.71191 100.735 8.77002L 100.735 6.86084C 100.544 6.80273 100.179 6.76953 99.8798 6.76953C 98.7094 6.76953 97.7299 7.43359 97.4809 8.33008L 97.3397 8.33008L 97.3397 6.91895L 95.3559 6.91895L 95.3559 16ZM 105.008 14.5308C 104.095 14.5308 103.44 14.0742 103.44 13.3105C 103.44 12.5718 103.979 12.1567 105.133 12.082L 107.183 11.9492L 107.183 12.6714C 107.183 13.7256 106.254 14.5308 105.008 14.5308ZM 104.402 16.1494C 105.589 16.1494 106.586 15.6348 107.092 14.7549L 107.233 14.7549L 107.233 16L 109.217 16L 109.217 9.79932C 109.217 7.87354 107.905 6.73633 105.573 6.73633C 103.415 6.73633 101.912 7.75732 101.746 9.35938L 103.689 9.35938C 103.879 8.74512 104.527 8.41309 105.473 8.41309C 106.586 8.41309 107.183 8.91113 107.183 9.79932L 107.183 10.563L 104.842 10.7041C 102.634 10.8369 101.398 11.7832 101.398 13.4268C 101.398 15.0869 102.651 16.1494 104.402 16.1494ZM 111.291 16L 113.349 16L 113.349 10.7124C 113.349 9.37598 114.121 8.5293 115.35 8.5293C 116.603 8.5293 117.184 9.22656 117.184 10.6128L 117.184 16L 119.243 16L 119.243 10.123C 119.243 7.95654 118.139 6.73633 116.114 6.73633C 114.761 6.73633 113.847 7.35889 113.416 8.37158L 113.275 8.37158L 113.275 6.91895L 111.291 6.91895L 111.291 16ZM 121.068 9.51709C 121.068 10.8867 121.89 11.6919 123.633 12.0903L 125.243 12.4639C 126.106 12.6548 126.497 12.9785 126.497 13.4932C 126.497 14.1655 125.774 14.6221 124.737 14.6221C 123.708 14.6221 123.068 14.2236 122.869 13.5513L 120.835 13.5513C 120.993 15.2031 122.421 16.1826 124.687 16.1826C 126.953 16.1826 128.555 15.0205 128.555 13.2773C 128.555 11.9409 127.75 11.1938 126.015 10.8037L 124.413 10.4385C 123.5 10.231 123.068 9.91553 123.068 9.40088C 123.068 8.74512 123.774 8.29688 124.712 8.29688C 125.675 8.29688 126.281 8.70361 126.43 9.34277L 128.364 9.34277C 128.215 7.69092 126.862 6.73633 124.704 6.73633C 122.562 6.73633 121.068 7.87354 121.068 9.51709ZM 133.335 14.5308C 132.422 14.5308 131.766 14.0742 131.766 13.3105C 131.766 12.5718 132.306 12.1567 133.46 12.082L 135.51 11.9492L 135.51 12.6714C 135.51 13.7256 134.58 14.5308 133.335 14.5308ZM 132.729 16.1494C 133.916 16.1494 134.912 15.6348 135.419 14.7549L 135.56 14.7549L 135.56 16L 137.544 16L 137.544 9.79932C 137.544 7.87354 136.232 6.73633 133.9 6.73633C 131.741 6.73633 130.239 7.75732 130.073 9.35938L 132.015 9.35938C 132.206 8.74512 132.854 8.41309 133.8 8.41309C 134.912 8.41309 135.51 8.91113 135.51 9.79932L 135.51 10.563L 133.169 10.7041C 130.961 10.8369 129.724 11.7832 129.724 13.4268C 129.724 15.0869 130.978 16.1494 132.729 16.1494ZM 147.462 9.97363C 147.246 8.06445 145.835 6.73633 143.502 6.73633C 140.771 6.73633 139.169 8.48779 139.169 11.4346C 139.169 14.4229 140.78 16.1826 143.511 16.1826C 145.81 16.1826 147.238 14.9043 147.462 13.0034L 145.503 13.0034C 145.287 13.9497 144.573 14.4561 143.502 14.4561C 142.1 14.4561 141.253 13.3438 141.253 11.4346C 141.253 9.55029 142.091 8.46289 143.502 8.46289C 144.631 8.46289 145.312 9.09375 145.503 9.97363L 147.462 9.97363ZM 149.793 4.69434L 149.793 6.97705L 148.357 6.97705L 148.357 8.62061L 149.793 8.62061L 149.793 13.5762C 149.793 15.3359 150.623 16.0415 152.707 16.0415C 153.105 16.0415 153.487 16 153.786 15.9419L 153.786 14.3315C 153.537 14.3564 153.379 14.373 153.089 14.373C 152.225 14.373 151.843 13.9746 151.843 13.0781L 151.843 8.62061L 153.786 8.62061L 153.786 6.97705L 151.843 6.97705L 151.843 4.69434L 149.793 4.69434ZM 155.461 16L 157.512 16L 157.512 6.91895L 155.461 6.91895L 155.461 16ZM 156.482 5.44141C 157.238 5.44141 157.752 4.95996 157.752 4.3042C 157.752 3.64844 157.238 3.16699 156.482 3.16699C 155.735 3.16699 155.212 3.64844 155.212 4.3042C 155.212 4.95996 155.735 5.44141 156.482 5.44141ZM 163.578 16.1826C 166.293 16.1826 167.944 14.4062 167.944 11.4595C 167.944 8.521 166.284 6.73633 163.578 6.73633C 160.88 6.73633 159.212 8.5293 159.212 11.4595C 159.212 14.4062 160.856 16.1826 163.578 16.1826ZM 163.578 14.4561C 162.142 14.4561 161.32 13.3604 161.32 11.4595C 161.32 9.56689 162.142 8.46289 163.578 8.46289C 165.006 8.46289 165.828 9.56689 165.828 11.4595C 165.828 13.3604 165.014 14.4561 163.578 14.4561ZM 169.612 16L 171.67 16L 171.67 10.7124C 171.67 9.37598 172.442 8.5293 173.671 8.5293C 174.924 8.5293 175.505 9.22656 175.505 10.6128L 175.505 16L 177.564 16L 177.564 10.123C 177.564 7.95654 176.46 6.73633 174.434 6.73633C 173.081 6.73633 172.168 7.35889 171.737 8.37158L 171.595 8.37158L 171.595 6.91895L 169.612 6.91895L 169.612 16Z"/>
<path id="path3_fill" fill-rule="evenodd" d="M 10.9376 0L 0 10.5L 10.9376 21L 13 19.0201L 4.12482 10.5L 13 1.9799L 10.9376 0Z"/>
<path id="path4_fill" d="M 2.53338 12.8706C 2.69109 14.9375 4.44256 16.2822 6.9826 16.2822C 9.72186 16.2822 11.4567 14.8794 11.4567 12.6797C 11.4567 10.9199 10.4606 9.95703 7.97869 9.33447L 6.72527 9.00244C 5.07342 8.5791 4.41766 8.03955 4.41766 7.10156C 4.41766 5.88965 5.47186 5.09277 7.06561 5.09277C 8.55975 5.09277 9.57244 5.82324 9.77996 7.05176L 11.2824 7.05176C 11.1579 5.11768 9.43133 3.73975 7.11541 3.73975C 4.58367 3.73975 2.88201 5.11768 2.88201 7.15137C 2.88201 8.85303 3.82 9.83252 5.9865 10.3804L 7.52215 10.7788C 9.174 11.1938 9.92107 11.8413 9.92107 12.8623C 9.92107 14.0493 8.73406 14.9209 7.12371 14.9209C 5.42205 14.9209 4.22674 14.124 4.04412 12.8706L 2.53338 12.8706ZM 16.1102 14.9043C 15.0726 14.9043 14.3006 14.373 14.3006 13.46C 14.3006 12.5635 14.8983 12.0903 16.2596 11.999L 18.6668 11.8413L 18.6668 12.6631C 18.6668 13.9414 17.5794 14.9043 16.1102 14.9043ZM 15.8446 16.1577C 17.0399 16.1577 18.0194 15.6348 18.6004 14.6802L 18.7332 14.6802L 18.7332 16L 20.0946 16L 20.0946 9.87402C 20.0946 8.01465 18.8744 6.89404 16.6912 6.89404C 14.7821 6.89404 13.3709 7.84033 13.18 9.27637L 14.6244 9.27637C 14.8236 8.5708 15.5706 8.16406 16.6414 8.16406C 17.9779 8.16406 18.6668 8.77002 18.6668 9.87402L 18.6668 10.6875L 16.0853 10.8452C 14.0018 10.9697 12.8231 11.8911 12.8231 13.4932C 12.8231 15.1284 14.1097 16.1577 15.8446 16.1577ZM 29.2969 7.05176L 27.7695 7.05176L 25.3208 14.4229L 25.188 14.4229L 22.7393 7.05176L 21.2119 7.05176L 24.5239 16L 25.9849 16L 29.2969 7.05176ZM 34.0334 8.15576C 35.4528 8.15576 36.3991 9.20166 36.4323 10.7871L 31.5016 10.7871C 31.6095 9.20166 32.6056 8.15576 34.0334 8.15576ZM 36.3908 13.6841C 36.0172 14.4727 35.237 14.896 34.0832 14.896C 32.5641 14.896 31.5763 13.7754 31.5016 12.0073L 31.5016 11.9409L 37.9347 11.9409L 37.9347 11.3931C 37.9347 8.6123 36.4655 6.89404 34.05 6.89404C 31.5929 6.89404 30.0158 8.72021 30.0158 11.5342C 30.0158 14.3647 31.568 16.1577 34.05 16.1577C 36.0089 16.1577 37.3869 15.2197 37.8185 13.6841L 36.3908 13.6841Z"/>
<path id="path5_fill" d="M 9.5582 12.8706C 9.71592 14.9375 11.4674 16.2822 14.0074 16.2822C 16.7467 16.2822 18.4815 14.8794 18.4815 12.6797C 18.4815 10.9199 17.4854 9.95703 15.0035 9.33447L 13.7501 9.00244C 12.0982 8.5791 11.4425 8.03955 11.4425 7.10156C 11.4425 5.88965 12.4967 5.09277 14.0904 5.09277C 15.5846 5.09277 16.5973 5.82324 16.8048 7.05176L 18.3072 7.05176C 18.1827 5.11768 16.4562 3.73975 14.1402 3.73975C 11.6085 3.73975 9.90684 5.11768 9.90684 7.15137C 9.90684 8.85303 10.8448 9.83252 13.0113 10.3804L 14.547 10.7788C 16.1988 11.1938 16.9459 11.8413 16.9459 12.8623C 16.9459 14.0493 15.7589 14.9209 14.1485 14.9209C 12.4469 14.9209 11.2516 14.124 11.0689 12.8706L 9.5582 12.8706ZM 24.7371 6.89404C 23.5169 6.89404 22.4461 7.5166 21.8733 8.5459L 21.7405 8.5459L 21.7405 7.05176L 20.3792 7.05176L 20.3792 18.9883L 21.8069 18.9883L 21.8069 14.6553L 21.9397 14.6553C 22.4295 15.6016 23.4587 16.1577 24.7371 16.1577C 27.0115 16.1577 28.4973 14.3232 28.4973 11.5259C 28.4973 8.71191 27.0198 6.89404 24.7371 6.89404ZM 24.3967 14.8711C 22.7864 14.8711 21.7654 13.5762 21.7654 11.5259C 21.7654 9.46729 22.7864 8.18066 24.405 8.18066C 26.0403 8.18066 27.0198 9.43408 27.0198 11.5259C 27.0198 13.6177 26.0403 14.8711 24.3967 14.8711ZM 30.4115 16L 31.8393 16L 31.8393 3.49902L 30.4115 3.49902L 30.4115 16ZM 34.2349 16L 35.6627 16L 35.6627 7.05176L 34.2349 7.05176L 34.2349 16ZM 34.9488 5.23389C 35.4967 5.23389 35.9449 4.78564 35.9449 4.23779C 35.9449 3.68994 35.4967 3.2417 34.9488 3.2417C 34.401 3.2417 33.9527 3.68994 33.9527 4.23779C 33.9527 4.78564 34.401 5.23389 34.9488 5.23389ZM 38.573 4.73584L 38.573 7.05176L 37.1287 7.05176L 37.1287 8.24707L 38.573 8.24707L 38.573 13.6758C 38.573 15.3857 39.3118 16.0664 41.1545 16.0664C 41.4368 16.0664 41.7107 16.0332 41.9929 15.9834L 41.9929 14.7798C 41.7273 14.8047 41.5862 14.813 41.3288 14.813C 40.3992 14.813 40.0007 14.3647 40.0007 13.3105L 40.0007 8.24707L 41.9929 8.24707L 41.9929 7.05176L 40.0007 7.05176L 40.0007 4.73584L 38.573 4.73584Z"/>
<path id="path6_fill" d="M 79.9825 16.2822C 82.5309 16.2822 84.4235 14.8628 84.8219 12.6631L 83.3028 12.6631C 82.921 14.0493 81.651 14.9043 79.9825 14.9043C 77.6749 14.9043 76.2306 13.02 76.2306 10.0151C 76.2306 7.01025 77.6749 5.11768 79.9742 5.11768C 81.6261 5.11768 82.9044 6.08887 83.3028 7.63281L 84.8219 7.63281C 84.465 5.3252 82.4977 3.73975 79.9742 3.73975C 76.7203 3.73975 74.6949 6.14697 74.6949 10.0151C 74.6949 13.875 76.7286 16.2822 79.9825 16.2822ZM 86.8191 16L 88.2469 16L 88.2469 10.7041C 88.2469 9.19336 89.1267 8.18066 90.7288 8.18066C 92.0818 8.18066 92.7957 8.96924 92.7957 10.5547L 92.7957 16L 94.2234 16L 94.2234 10.2061C 94.2234 8.10596 93.0281 6.89404 91.1355 6.89404C 89.7659 6.89404 88.8279 7.4751 88.3797 8.46289L 88.2469 8.46289L 88.2469 3.49902L 86.8191 3.49902L 86.8191 16ZM 100.097 16.1577C 102.645 16.1577 104.223 14.3979 104.223 11.5259C 104.223 8.64551 102.645 6.89404 100.097 6.89404C 97.5488 6.89404 95.9716 8.64551 95.9716 11.5259C 95.9716 14.3979 97.5488 16.1577 100.097 16.1577ZM 100.097 14.8711C 98.4037 14.8711 97.4492 13.6426 97.4492 11.5259C 97.4492 9.40088 98.4037 8.18066 100.097 8.18066C 101.79 8.18066 102.745 9.40088 102.745 11.5259C 102.745 13.6426 101.79 14.8711 100.097 14.8711ZM 109.731 16.1577C 112.279 16.1577 113.857 14.3979 113.857 11.5259C 113.857 8.64551 112.279 6.89404 109.731 6.89404C 107.183 6.89404 105.606 8.64551 105.606 11.5259C 105.606 14.3979 107.183 16.1577 109.731 16.1577ZM 109.731 14.8711C 108.038 14.8711 107.083 13.6426 107.083 11.5259C 107.083 9.40088 108.038 8.18066 109.731 8.18066C 111.424 8.18066 112.379 9.40088 112.379 11.5259C 112.379 13.6426 111.424 14.8711 109.731 14.8711ZM 115.48 9.50049C 115.48 10.7954 116.244 11.5176 117.921 11.9243L 119.456 12.2979C 120.411 12.5303 120.876 12.9453 120.876 13.5596C 120.876 14.3813 120.012 14.9541 118.809 14.9541C 117.663 14.9541 116.949 14.4727 116.709 13.7173L 115.24 13.7173C 115.397 15.2031 116.767 16.1577 118.759 16.1577C 120.793 16.1577 122.345 15.0537 122.345 13.4517C 122.345 12.165 121.532 11.4346 119.846 11.0278L 118.469 10.6958C 117.414 10.4385 116.916 10.0566 116.916 9.44238C 116.916 8.64551 117.746 8.10596 118.809 8.10596C 119.888 8.10596 120.585 8.5791 120.776 9.29297L 122.187 9.29297C 121.996 7.82373 120.693 6.89404 118.817 6.89404C 116.916 6.89404 115.48 8.01465 115.48 9.50049ZM 127.746 8.15576C 129.165 8.15576 130.111 9.20166 130.144 10.7871L 125.214 10.7871C 125.322 9.20166 126.318 8.15576 127.746 8.15576ZM 130.103 13.6841C 129.729 14.4727 128.949 14.896 127.795 14.896C 126.276 14.896 125.288 13.7754 125.214 12.0073L 125.214 11.9409L 131.647 11.9409L 131.647 11.3931C 131.647 8.6123 130.178 6.89404 127.762 6.89404C 125.305 6.89404 123.728 8.72021 123.728 11.5342C 123.728 14.3647 125.28 16.1577 127.762 16.1577C 129.721 16.1577 131.099 15.2197 131.531 13.6841L 130.103 13.6841ZM 138.049 4.02197L 138.049 16L 142.157 16C 145.718 16 147.81 13.7837 147.81 10.0068C 147.81 6.23828 145.71 4.02197 142.157 4.02197L 138.049 4.02197ZM 139.543 5.3667L 142.058 5.3667C 144.714 5.3667 146.283 7.09326 146.283 10.0234C 146.283 12.9453 144.731 14.6553 142.058 14.6553L 139.543 14.6553L 139.543 5.3667ZM 152.563 14.9043C 151.526 14.9043 150.754 14.373 150.754 13.46C 150.754 12.5635 151.351 12.0903 152.713 11.999L 155.12 11.8413L 155.12 12.6631C 155.12 13.9414 154.033 14.9043 152.563 14.9043ZM 152.298 16.1577C 153.493 16.1577 154.473 15.6348 155.054 14.6802L 155.186 14.6802L 155.186 16L 156.548 16L 156.548 9.87402C 156.548 8.01465 155.328 6.89404 153.144 6.89404C 151.235 6.89404 149.824 7.84033 149.633 9.27637L 151.078 9.27637C 151.277 8.5708 152.024 8.16406 153.095 8.16406C 154.431 8.16406 155.12 8.77002 155.12 9.87402L 155.12 10.6875L 152.538 10.8452C 150.455 10.9697 149.276 11.8911 149.276 13.4932C 149.276 15.1284 150.563 16.1577 152.298 16.1577ZM 159.375 4.73584L 159.375 7.05176L 157.931 7.05176L 157.931 8.24707L 159.375 8.24707L 159.375 13.6758C 159.375 15.3857 160.114 16.0664 161.957 16.0664C 162.239 16.0664 162.513 16.0332 162.795 15.9834L 162.795 14.7798C 162.529 14.8047 162.388 14.813 162.131 14.813C 161.201 14.813 160.803 14.3647 160.803 13.3105L 160.803 8.24707L 162.795 8.24707L 162.795 7.05176L 160.803 7.05176L 160.803 4.73584L 159.375 4.73584ZM 167.98 8.15576C 169.399 8.15576 170.345 9.20166 170.379 10.7871L 165.448 10.7871C 165.556 9.20166 166.552 8.15576 167.98 8.15576ZM 170.337 13.6841C 169.964 14.4727 169.183 14.896 168.03 14.896C 166.51 14.896 165.523 13.7754 165.448 12.0073L 165.448 11.9409L 171.881 11.9409L 171.881 11.3931C 171.881 8.6123 170.412 6.89404 167.996 6.89404C 165.539 6.89404 163.962 8.72021 163.962 11.5342C 163.962 14.3647 165.514 16.1577 167.996 16.1577C 169.955 16.1577 171.333 15.2197 171.765 13.6841L 170.337 13.6841Z"/>
<path id="path7_fill" d="M 9.31348 17L 10.8823 17L 6.46631 5.02197L 4.98877 5.02197L 0.572754 17L 2.1416 17L 3.34521 13.5718L 8.10986 13.5718L 9.31348 17ZM 5.66113 6.95605L 5.79395 6.95605L 7.66992 12.3018L 3.78516 12.3018L 5.66113 6.95605ZM 12.3898 17L 13.8175 17L 13.8175 11.4551C 13.8175 10.1934 14.7223 9.18066 15.8927 9.18066C 17.0216 9.18066 17.7604 9.86133 17.7604 10.9238L 17.7604 17L 19.1881 17L 19.1881 11.2476C 19.1881 10.1104 20.0182 9.18066 21.2633 9.18066C 22.5251 9.18066 23.1476 9.82812 23.1476 11.1479L 23.1476 17L 24.5754 17L 24.5754 10.8159C 24.5754 8.93994 23.5544 7.89404 21.7282 7.89404C 20.4914 7.89404 19.4704 8.5166 18.9889 9.46289L 18.8561 9.46289C 18.4411 8.5332 17.5944 7.89404 16.3825 7.89404C 15.1872 7.89404 14.2907 8.4668 13.8839 9.46289L 13.7511 9.46289L 13.7511 8.05176L 12.3898 8.05176L 12.3898 17ZM 30.449 17.1577C 32.9974 17.1577 34.5745 15.3979 34.5745 12.5259C 34.5745 9.64551 32.9974 7.89404 30.449 7.89404C 27.9007 7.89404 26.3236 9.64551 26.3236 12.5259C 26.3236 15.3979 27.9007 17.1577 30.449 17.1577ZM 30.449 15.8711C 28.7557 15.8711 27.8011 14.6426 27.8011 12.5259C 27.8011 10.4009 28.7557 9.18066 30.449 9.18066C 32.1424 9.18066 33.097 10.4009 33.097 12.5259C 33.097 14.6426 32.1424 15.8711 30.449 15.8711ZM 43.644 8.05176L 42.2163 8.05176L 42.2163 13.3477C 42.2163 14.9165 41.353 15.8545 39.7759 15.8545C 38.3481 15.8545 37.7505 15.1074 37.7505 13.4971L 37.7505 8.05176L 36.3227 8.05176L 36.3227 13.8457C 36.3227 15.9624 37.3686 17.1577 39.3774 17.1577C 40.7471 17.1577 41.7016 16.5933 42.1499 15.5972L 42.2827 15.5972L 42.2827 17L 43.644 17L 43.644 8.05176ZM 45.9235 17L 47.3512 17L 47.3512 11.7041C 47.3512 10.1353 48.2726 9.18066 49.7003 9.18066C 51.1281 9.18066 51.8087 9.94434 51.8087 11.5547L 51.8087 17L 53.2365 17L 53.2365 11.2061C 53.2365 9.08105 52.1159 7.89404 50.1071 7.89404C 48.7374 7.89404 47.8659 8.4751 47.4176 9.46289L 47.2848 9.46289L 47.2848 8.05176L 45.9235 8.05176L 45.9235 17ZM 56.0389 5.73584L 56.0389 8.05176L 54.5945 8.05176L 54.5945 9.24707L 56.0389 9.24707L 56.0389 14.6758C 56.0389 16.3857 56.7776 17.0664 58.6204 17.0664C 58.9026 17.0664 59.1766 17.0332 59.4588 16.9834L 59.4588 15.7798C 59.1932 15.8047 59.0521 15.813 58.7947 15.813C 57.865 15.813 57.4666 15.3647 57.4666 14.3105L 57.4666 9.24707L 59.4588 9.24707L 59.4588 8.05176L 57.4666 8.05176L 57.4666 5.73584L 56.0389 5.73584Z"/>
<path id="path8_fill" d="M 3.06299 5.02197L 1.56885 5.02197L 1.56885 12.8828C 1.56885 15.4395 3.35352 17.2822 6.3252 17.2822C 9.29688 17.2822 11.0815 15.4395 11.0815 12.8828L 11.0815 5.02197L 9.5874 5.02197L 9.5874 12.7832C 9.5874 14.5928 8.40039 15.9043 6.3252 15.9043C 4.25 15.9043 3.06299 14.5928 3.06299 12.7832L 3.06299 5.02197ZM 13.195 13.8706C 13.3527 15.9375 15.1042 17.2822 17.6442 17.2822C 20.3835 17.2822 22.1183 15.8794 22.1183 13.6797C 22.1183 11.9199 21.1222 10.957 18.6403 10.3345L 17.3869 10.0024C 15.735 9.5791 15.0793 9.03955 15.0793 8.10156C 15.0793 6.88965 16.1335 6.09277 17.7272 6.09277C 19.2213 6.09277 20.234 6.82324 20.4416 8.05176L 21.944 8.05176C 21.8195 6.11768 20.0929 4.73975 17.777 4.73975C 15.2453 4.73975 13.5436 6.11768 13.5436 8.15137C 13.5436 9.85303 14.4816 10.8325 16.6481 11.3804L 18.1838 11.7788C 19.8356 12.1938 20.5827 12.8413 20.5827 13.8623C 20.5827 15.0493 19.3957 15.9209 17.7853 15.9209C 16.0837 15.9209 14.8883 15.124 14.7057 13.8706L 13.195 13.8706ZM 24.1986 5.02197L 24.1986 17L 28.3074 17C 31.8685 17 33.9603 14.7837 33.9603 11.0068C 33.9603 7.23828 31.8602 5.02197 28.3074 5.02197L 24.1986 5.02197ZM 25.6927 6.3667L 28.2078 6.3667C 30.8641 6.3667 32.4329 8.09326 32.4329 11.0234C 32.4329 13.9453 30.8807 15.6553 28.2078 15.6553L 25.6927 15.6553L 25.6927 6.3667Z"/>
<path id="path9_fill" d="M 3.00488 17L 3.00488 7.71143L 3.1377 7.71143L 9.63721 17L 11.0898 17L 11.0898 5.02197L 9.6123 5.02197L 9.6123 14.3438L 9.47949 14.3438L 2.97998 5.02197L 1.52734 5.02197L 1.52734 17L 3.00488 17ZM 16.3078 15.9043C 15.2702 15.9043 14.4982 15.373 14.4982 14.46C 14.4982 13.5635 15.0959 13.0903 16.4572 12.999L 18.8644 12.8413L 18.8644 13.6631C 18.8644 14.9414 17.777 15.9043 16.3078 15.9043ZM 16.0421 17.1577C 17.2375 17.1577 18.217 16.6348 18.798 15.6802L 18.9308 15.6802L 18.9308 17L 20.2921 17L 20.2921 10.874C 20.2921 9.01465 19.0719 7.89404 16.8888 7.89404C 14.9796 7.89404 13.5685 8.84033 13.3776 10.2764L 14.8219 10.2764C 15.0212 9.5708 15.7682 9.16406 16.839 9.16406C 18.1754 9.16406 18.8644 9.77002 18.8644 10.874L 18.8644 11.6875L 16.2829 11.8452C 14.1994 11.9697 13.0207 12.8911 13.0207 14.4932C 13.0207 16.1284 14.3073 17.1577 16.0421 17.1577ZM 22.5218 17L 23.9495 17L 23.9495 11.4551C 23.9495 10.1934 24.8543 9.18066 26.0247 9.18066C 27.1536 9.18066 27.8924 9.86133 27.8924 10.9238L 27.8924 17L 29.3201 17L 29.3201 11.2476C 29.3201 10.1104 30.1502 9.18066 31.3953 9.18066C 32.6571 9.18066 33.2796 9.82812 33.2796 11.1479L 33.2796 17L 34.7073 17L 34.7073 10.8159C 34.7073 8.93994 33.6863 7.89404 31.8602 7.89404C 30.6234 7.89404 29.6024 8.5166 29.1209 9.46289L 28.9881 9.46289C 28.5731 8.5332 27.7264 7.89404 26.5145 7.89404C 25.3192 7.89404 24.4227 8.4668 24.0159 9.46289L 23.8831 9.46289L 23.8831 8.05176L 22.5218 8.05176L 22.5218 17ZM 40.4731 9.15576C 41.8926 9.15576 42.8388 10.2017 42.8721 11.7871L 37.9414 11.7871C 38.0493 10.2017 39.0454 9.15576 40.4731 9.15576ZM 42.8305 14.6841C 42.457 15.4727 41.6767 15.896 40.5229 15.896C 39.0039 15.896 38.0161 14.7754 37.9414 13.0073L 37.9414 12.9409L 44.3745 12.9409L 44.3745 12.3931C 44.3745 9.6123 42.9053 7.89404 40.4897 7.89404C 38.0327 7.89404 36.4555 9.72021 36.4555 12.5342C 36.4555 15.3647 38.0078 17.1577 40.4897 17.1577C 42.4487 17.1577 43.8266 16.2197 44.2583 14.6841L 42.8305 14.6841Z"/>
<path id="path10_fill" d="M 6.3501 17.2822C 8.89844 17.2822 10.791 15.8628 11.1895 13.6631L 9.67041 13.6631C 9.28857 15.0493 8.01855 15.9043 6.3501 15.9043C 4.04248 15.9043 2.59814 14.02 2.59814 11.0151C 2.59814 8.01025 4.04248 6.11768 6.3418 6.11768C 7.99365 6.11768 9.27197 7.08887 9.67041 8.63281L 11.1895 8.63281C 10.8325 6.3252 8.86523 4.73975 6.3418 4.73975C 3.08789 4.73975 1.0625 7.14697 1.0625 11.0151C 1.0625 14.875 3.09619 17.2822 6.3501 17.2822ZM 15.8595 15.9043C 14.8219 15.9043 14.05 15.373 14.05 14.46C 14.05 13.5635 14.6476 13.0903 16.0089 12.999L 18.4162 12.8413L 18.4162 13.6631C 18.4162 14.9414 17.3288 15.9043 15.8595 15.9043ZM 15.5939 17.1577C 16.7892 17.1577 17.7687 16.6348 18.3498 15.6802L 18.4826 15.6802L 18.4826 17L 19.8439 17L 19.8439 10.874C 19.8439 9.01465 18.6237 7.89404 16.4406 7.89404C 14.5314 7.89404 13.1203 8.84033 12.9294 10.2764L 14.3737 10.2764C 14.5729 9.5708 15.32 9.16406 16.3908 9.16406C 17.7272 9.16406 18.4162 9.77002 18.4162 10.874L 18.4162 11.6875L 15.8346 11.8452C 13.7511 11.9697 12.5724 12.8911 12.5724 14.4932C 12.5724 16.1284 13.859 17.1577 15.5939 17.1577ZM 22.6712 5.73584L 22.6712 8.05176L 21.2269 8.05176L 21.2269 9.24707L 22.6712 9.24707L 22.6712 14.6758C 22.6712 16.3857 23.41 17.0664 25.2528 17.0664C 25.535 17.0664 25.8089 17.0332 26.0911 16.9834L 26.0911 15.7798C 25.8255 15.8047 25.6844 15.813 25.4271 15.813C 24.4974 15.813 24.0989 15.3647 24.0989 14.3105L 24.0989 9.24707L 26.0911 9.24707L 26.0911 8.05176L 24.0989 8.05176L 24.0989 5.73584L 22.6712 5.73584ZM 31.2759 9.15576C 32.6953 9.15576 33.6416 10.2017 33.6748 11.7871L 28.7441 11.7871C 28.852 10.2017 29.8481 9.15576 31.2759 9.15576ZM 33.6333 14.6841C 33.2597 15.4727 32.4795 15.896 31.3257 15.896C 29.8066 15.896 28.8188 14.7754 28.7441 13.0073L 28.7441 12.9409L 35.1772 12.9409L 35.1772 12.3931C 35.1772 9.6123 33.708 7.89404 31.2925 7.89404C 28.8354 7.89404 27.2583 9.72021 27.2583 12.5342C 27.2583 15.3647 28.8105 17.1577 31.2925 17.1577C 33.2514 17.1577 34.6294 16.2197 35.061 14.6841L 33.6333 14.6841ZM 40.6276 15.6055C 38.9674 15.6055 38.0377 14.3438 38.0377 12.3931C 38.0377 10.4424 38.9674 9.18066 40.6276 9.18066C 42.2794 9.18066 43.2838 10.4424 43.2838 12.3931C 43.2838 14.3438 42.2877 15.6055 40.6276 15.6055ZM 40.694 20.4365C 43.1344 20.4365 44.6784 19.1582 44.6784 17.1577L 44.6784 8.05176L 43.317 8.05176L 43.317 9.47119L 43.1842 9.47119C 42.6696 8.5083 41.5656 7.89404 40.3121 7.89404C 38.0128 7.89404 36.5602 9.71191 36.5602 12.3931C 36.5602 15.0742 37.9962 16.8672 40.3121 16.8672C 41.5407 16.8672 42.5534 16.311 43.1178 15.3232L 43.2506 15.3232L 43.2506 17.083C 43.2506 18.4028 42.296 19.1914 40.694 19.1914C 39.4074 19.1914 38.6105 18.7183 38.4528 17.9878L 36.942 17.9878C 37.1579 19.4653 38.5358 20.4365 40.694 20.4365ZM 50.6351 17.1577C 53.1834 17.1577 54.7605 15.3979 54.7605 12.5259C 54.7605 9.64551 53.1834 7.89404 50.6351 7.89404C 48.0867 7.89404 46.5096 9.64551 46.5096 12.5259C 46.5096 15.3979 48.0867 17.1577 50.6351 17.1577ZM 50.6351 15.8711C 48.9417 15.8711 47.9871 14.6426 47.9871 12.5259C 47.9871 10.4009 48.9417 9.18066 50.6351 9.18066C 52.3284 9.18066 53.283 10.4009 53.283 12.5259C 53.283 14.6426 52.3284 15.8711 50.6351 15.8711ZM 56.5918 17L 58.0195 17L 58.0195 11.4551C 58.0195 10.1934 59.0073 9.28027 60.3686 9.28027C 60.6508 9.28027 61.1655 9.33008 61.2817 9.36328L 61.2817 7.93555C 61.0991 7.91064 60.8003 7.89404 60.5678 7.89404C 59.3808 7.89404 58.3515 8.5083 58.0859 9.37988L 57.9531 9.37988L 57.9531 8.05176L 56.5918 8.05176L 56.5918 17ZM 63.42 20.2373C 65.0055 20.2373 65.7194 19.623 66.483 17.5479L 69.9777 8.05176L 68.4586 8.05176L 66.0099 15.4146L 65.8771 15.4146L 63.42 8.05176L 61.8761 8.05176L 65.1881 17.0083L 65.0221 17.5396C 64.6486 18.6187 64.2003 19.0088 63.3785 19.0088C 63.1793 19.0088 62.9552 19.0005 62.7809 18.9673L 62.7809 20.1875C 62.9801 20.2207 63.2291 20.2373 63.42 20.2373Z"/>
<path id="path11_fill" d="M 0 0L 71 0L 71 101L 0 101L 0 0Z"/>
<path id="path12_fill" d="M 3.02148 16L 3.02148 4.02197L 1.52734 4.02197L 1.52734 16L 3.02148 16ZM 13.2979 9.79102C 13.0488 8.19727 11.7207 6.89404 9.5459 6.89404C 7.03906 6.89404 5.44531 8.70361 5.44531 11.4927C 5.44531 14.3398 7.04736 16.1577 9.5542 16.1577C 11.7041 16.1577 13.0405 14.9458 13.2979 13.3022L 11.8535 13.3022C 11.5879 14.3149 10.7495 14.8711 9.5459 14.8711C 7.95215 14.8711 6.92285 13.5596 6.92285 11.4927C 6.92285 9.46729 7.93555 8.18066 9.5459 8.18066C 10.8325 8.18066 11.6211 8.90283 11.8535 9.79102L 13.2979 9.79102ZM 19.0835 16.1577C 21.6318 16.1577 23.209 14.3979 23.209 11.5259C 23.209 8.64551 21.6318 6.89404 19.0835 6.89404C 16.5352 6.89404 14.958 8.64551 14.958 11.5259C 14.958 14.3979 16.5352 16.1577 19.0835 16.1577ZM 19.0835 14.8711C 17.3901 14.8711 16.4355 13.6426 16.4355 11.5259C 16.4355 9.40088 17.3901 8.18066 19.0835 8.18066C 20.7769 8.18066 21.7314 9.40088 21.7314 11.5259C 21.7314 13.6426 20.7769 14.8711 19.0835 14.8711ZM 25.4502 16L 26.8779 16L 26.8779 10.7041C 26.8779 9.13525 27.7993 8.18066 29.2271 8.18066C 30.6548 8.18066 31.3354 8.94434 31.3354 10.5547L 31.3354 16L 32.7632 16L 32.7632 10.2061C 32.7632 8.08105 31.6426 6.89404 29.6338 6.89404C 28.2642 6.89404 27.3926 7.4751 26.9443 8.46289L 26.8115 8.46289L 26.8115 7.05176L 25.4502 7.05176L 25.4502 16Z"/>
<path id="path13_fill" d="M 0 0L 375 0L 375 275L 0 275L 0 0Z"/>
<path id="path14_fill" d="M 3.02148 5.3501L 5.90186 5.3501C 7.4458 5.3501 8.37549 6.20508 8.37549 7.64111C 8.37549 9.11035 7.50391 9.93213 5.96826 9.93213L 3.02148 9.93213L 3.02148 5.3501ZM 3.02148 11.2603L 5.96826 11.2603L 8.5332 16L 10.2847 16L 7.51221 11.0278C 9.01465 10.5547 9.91943 9.25977 9.91943 7.59131C 9.91943 5.43311 8.40869 4.02197 6.10107 4.02197L 1.52734 4.02197L 1.52734 16L 3.02148 16L 3.02148 11.2603ZM 15.7715 8.15576C 17.1909 8.15576 18.1372 9.20166 18.1704 10.7871L 13.2397 10.7871C 13.3477 9.20166 14.3438 8.15576 15.7715 8.15576ZM 18.1289 13.6841C 17.7554 14.4727 16.9751 14.896 15.8213 14.896C 14.3022 14.896 13.3145 13.7754 13.2397 12.0073L 13.2397 11.9409L 19.6729 11.9409L 19.6729 11.3931C 19.6729 8.6123 18.2036 6.89404 15.7881 6.89404C 13.3311 6.89404 11.7539 8.72021 11.7539 11.5342C 11.7539 14.3647 13.3062 16.1577 15.7881 16.1577C 17.7471 16.1577 19.125 15.2197 19.5566 13.6841L 18.1289 13.6841ZM 29.3184 9.79102C 29.0693 8.19727 27.7412 6.89404 25.5664 6.89404C 23.0596 6.89404 21.4658 8.70361 21.4658 11.4927C 21.4658 14.3398 23.0679 16.1577 25.5747 16.1577C 27.7246 16.1577 29.061 14.9458 29.3184 13.3022L 27.874 13.3022C 27.6084 14.3149 26.77 14.8711 25.5664 14.8711C 23.9727 14.8711 22.9434 13.5596 22.9434 11.4927C 22.9434 9.46729 23.9561 8.18066 25.5664 8.18066C 26.853 8.18066 27.6416 8.90283 27.874 9.79102L 29.3184 9.79102ZM 34.9961 8.15576C 36.4155 8.15576 37.3618 9.20166 37.395 10.7871L 32.4644 10.7871C 32.5723 9.20166 33.5684 8.15576 34.9961 8.15576ZM 37.3535 13.6841C 36.98 14.4727 36.1997 14.896 35.0459 14.896C 33.5269 14.896 32.5391 13.7754 32.4644 12.0073L 32.4644 11.9409L 38.8975 11.9409L 38.8975 11.3931C 38.8975 8.6123 37.4282 6.89404 35.0127 6.89404C 32.5557 6.89404 30.9785 8.72021 30.9785 11.5342C 30.9785 14.3647 32.5308 16.1577 35.0127 16.1577C 36.9717 16.1577 38.3496 15.2197 38.7812 13.6841L 37.3535 13.6841ZM 41.1719 16L 42.5996 16L 42.5996 7.05176L 41.1719 7.05176L 41.1719 16ZM 41.8857 5.23389C 42.4336 5.23389 42.8818 4.78564 42.8818 4.23779C 42.8818 3.68994 42.4336 3.2417 41.8857 3.2417C 41.3379 3.2417 40.8896 3.68994 40.8896 4.23779C 40.8896 4.78564 41.3379 5.23389 41.8857 5.23389ZM 49.6802 6.89404C 48.46 6.89404 47.3892 7.5166 46.8164 8.5459L 46.6836 8.5459L 46.6836 7.05176L 45.3223 7.05176L 45.3223 18.9883L 46.75 18.9883L 46.75 14.6553L 46.8828 14.6553C 47.3726 15.6016 48.4019 16.1577 49.6802 16.1577C 51.9546 16.1577 53.4404 14.3232 53.4404 11.5259C 53.4404 8.71191 51.9629 6.89404 49.6802 6.89404ZM 49.3398 14.8711C 47.7295 14.8711 46.7085 13.5762 46.7085 11.5259C 46.7085 9.46729 47.7295 8.18066 49.3481 8.18066C 50.9834 8.18066 51.9629 9.43408 51.9629 11.5259C 51.9629 13.6177 50.9834 14.8711 49.3398 14.8711ZM 56.2793 4.73584L 56.2793 7.05176L 54.835 7.05176L 54.835 8.24707L 56.2793 8.24707L 56.2793 13.6758C 56.2793 15.3857 57.0181 16.0664 58.8608 16.0664C 59.1431 16.0664 59.417 16.0332 59.6992 15.9834L 59.6992 14.7798C 59.4336 14.8047 59.2925 14.813 59.0352 14.813C 58.1055 14.813 57.707 14.3647 57.707 13.3105L 57.707 8.24707L 59.6992 8.24707L 59.6992 7.05176L 57.707 7.05176L 57.707 4.73584L 56.2793 4.73584ZM 68.332 16L 68.332 4.02197L 66.8379 4.02197L 66.8379 16L 68.332 16ZM 71.2041 16L 72.6318 16L 72.6318 10.4551C 72.6318 9.19336 73.5366 8.18066 74.707 8.18066C 75.8359 8.18066 76.5747 8.86133 76.5747 9.92383L 76.5747 16L 78.0024 16L 78.0024 10.2476C 78.0024 9.11035 78.8325 8.18066 80.0776 8.18066C 81.3394 8.18066 81.9619 8.82812 81.9619 10.1479L 81.9619 16L 83.3896 16L 83.3896 9.81592C 83.3896 7.93994 82.3687 6.89404 80.5425 6.89404C 79.3057 6.89404 78.2847 7.5166 77.8032 8.46289L 77.6704 8.46289C 77.2554 7.5332 76.4087 6.89404 75.1968 6.89404C 74.0015 6.89404 73.105 7.4668 72.6982 8.46289L 72.5654 8.46289L 72.5654 7.05176L 71.2041 7.05176L 71.2041 16ZM 88.752 14.9043C 87.7144 14.9043 86.9424 14.373 86.9424 13.46C 86.9424 12.5635 87.54 12.0903 88.9014 11.999L 91.3086 11.8413L 91.3086 12.6631C 91.3086 13.9414 90.2212 14.9043 88.752 14.9043ZM 88.4863 16.1577C 89.6816 16.1577 90.6611 15.6348 91.2422 14.6802L 91.375 14.6802L 91.375 16L 92.7363 16L 92.7363 9.87402C 92.7363 8.01465 91.5161 6.89404 89.333 6.89404C 87.4238 6.89404 86.0127 7.84033 85.8218 9.27637L 87.2661 9.27637C 87.4653 8.5708 88.2124 8.16406 89.2832 8.16406C 90.6196 8.16406 91.3086 8.77002 91.3086 9.87402L 91.3086 10.6875L 88.7271 10.8452C 86.6436 10.9697 85.4648 11.8911 85.4648 13.4932C 85.4648 15.1284 86.7515 16.1577 88.4863 16.1577ZM 98.9951 14.6055C 97.335 14.6055 96.4053 13.3438 96.4053 11.3931C 96.4053 9.44238 97.335 8.18066 98.9951 8.18066C 100.647 8.18066 101.651 9.44238 101.651 11.3931C 101.651 13.3438 100.655 14.6055 98.9951 14.6055ZM 99.0615 19.4365C 101.502 19.4365 103.046 18.1582 103.046 16.1577L 103.046 7.05176L 101.685 7.05176L 101.685 8.47119L 101.552 8.47119C 101.037 7.5083 99.9331 6.89404 98.6797 6.89404C 96.3804 6.89404 94.9277 8.71191 94.9277 11.3931C 94.9277 14.0742 96.3638 15.8672 98.6797 15.8672C 99.9082 15.8672 100.921 15.311 101.485 14.3232L 101.618 14.3232L 101.618 16.083C 101.618 17.4028 100.664 18.1914 99.0615 18.1914C 97.7749 18.1914 96.978 17.7183 96.8203 16.9878L 95.3096 16.9878C 95.5254 18.4653 96.9033 19.4365 99.0615 19.4365ZM 109.305 8.15576C 110.724 8.15576 111.67 9.20166 111.704 10.7871L 106.773 10.7871C 106.881 9.20166 107.877 8.15576 109.305 8.15576ZM 111.662 13.6841C 111.289 14.4727 110.508 14.896 109.354 14.896C 107.835 14.896 106.848 13.7754 106.773 12.0073L 106.773 11.9409L 113.206 11.9409L 113.206 11.3931C 113.206 8.6123 111.737 6.89404 109.321 6.89404C 106.864 6.89404 105.287 8.72021 105.287 11.5342C 105.287 14.3647 106.839 16.1577 109.321 16.1577C 111.28 16.1577 112.658 15.2197 113.09 13.6841L 111.662 13.6841ZM 125.367 16L 129.783 4.02197L 128.214 4.02197L 124.694 14.0659L 124.562 14.0659L 121.042 4.02197L 119.473 4.02197L 123.889 16L 125.367 16ZM 131.733 16L 133.161 16L 133.161 7.05176L 131.733 7.05176L 131.733 16ZM 132.447 5.23389C 132.995 5.23389 133.443 4.78564 133.443 4.23779C 133.443 3.68994 132.995 3.2417 132.447 3.2417C 131.899 3.2417 131.451 3.68994 131.451 4.23779C 131.451 4.78564 131.899 5.23389 132.447 5.23389ZM 139.453 8.15576C 140.873 8.15576 141.819 9.20166 141.852 10.7871L 136.921 10.7871C 137.029 9.20166 138.025 8.15576 139.453 8.15576ZM 141.811 13.6841C 141.437 14.4727 140.657 14.896 139.503 14.896C 137.984 14.896 136.996 13.7754 136.921 12.0073L 136.921 11.9409L 143.354 11.9409L 143.354 11.3931C 143.354 8.6123 141.885 6.89404 139.47 6.89404C 137.013 6.89404 135.436 8.72021 135.436 11.5342C 135.436 14.3647 136.988 16.1577 139.47 16.1577C 141.429 16.1577 142.807 15.2197 143.238 13.6841L 141.811 13.6841ZM 156.852 7.05176L 155.416 7.05176L 153.656 14.207L 153.523 14.207L 151.522 7.05176L 150.153 7.05176L 148.152 14.207L 148.02 14.207L 146.26 7.05176L 144.815 7.05176L 147.322 16L 148.767 16L 150.759 9.07715L 150.892 9.07715L 152.892 16L 154.345 16L 156.852 7.05176Z"/>
<path id="path15_fill" d="M 9.31348 16L 10.8823 16L 6.46631 4.02197L 4.98877 4.02197L 0.572754 16L 2.1416 16L 3.34521 12.5718L 8.10986 12.5718L 9.31348 16ZM 5.66113 5.95605L 5.79395 5.95605L 7.66992 11.3018L 3.78516 11.3018L 5.66113 5.95605ZM 15.2038 16.1577C 16.4406 16.1577 17.5031 15.5684 18.0675 14.5723L 18.2004 14.5723L 18.2004 16L 19.5617 16L 19.5617 3.49902L 18.1339 3.49902L 18.1339 8.46289L 18.0094 8.46289C 17.5031 7.4834 16.4489 6.89404 15.2038 6.89404C 12.9294 6.89404 11.4435 8.72021 11.4435 11.5259C 11.4435 14.3398 12.9128 16.1577 15.2038 16.1577ZM 15.5358 8.18066C 17.1545 8.18066 18.1671 9.47559 18.1671 11.5259C 18.1671 13.5928 17.1628 14.8711 15.5358 14.8711C 13.9005 14.8711 12.9211 13.6177 12.9211 11.5259C 12.9211 9.44238 13.9088 8.18066 15.5358 8.18066ZM 25.2362 16.1577C 26.473 16.1577 27.5355 15.5684 28.0999 14.5723L 28.2327 14.5723L 28.2327 16L 29.5941 16L 29.5941 3.49902L 28.1663 3.49902L 28.1663 8.46289L 28.0418 8.46289C 27.5355 7.4834 26.4813 6.89404 25.2362 6.89404C 22.9617 6.89404 21.4759 8.72021 21.4759 11.5259C 21.4759 14.3398 22.9451 16.1577 25.2362 16.1577ZM 25.5682 8.18066C 27.1868 8.18066 28.1995 9.47559 28.1995 11.5259C 28.1995 13.5928 27.1951 14.8711 25.5682 14.8711C 23.9329 14.8711 22.9534 13.6177 22.9534 11.5259C 22.9534 9.44238 23.9412 8.18066 25.5682 8.18066ZM 38.0211 5.3501L 40.9015 5.3501C 42.4454 5.3501 43.3751 6.20508 43.3751 7.64111C 43.3751 9.11035 42.5036 9.93213 40.9679 9.93213L 38.0211 9.93213L 38.0211 5.3501ZM 38.0211 11.2603L 40.9679 11.2603L 43.5329 16L 45.2843 16L 42.5119 11.0278C 44.0143 10.5547 44.9191 9.25977 44.9191 7.59131C 44.9191 5.43311 43.4083 4.02197 41.1007 4.02197L 36.527 4.02197L 36.527 16L 38.0211 16L 38.0211 11.2603ZM 50.3611 8.15576C 51.7806 8.15576 52.7269 9.20166 52.7601 10.7871L 47.8294 10.7871C 47.9373 9.20166 48.9334 8.15576 50.3611 8.15576ZM 52.7186 13.6841C 52.345 14.4727 51.5647 14.896 50.4109 14.896C 48.8919 14.896 47.9041 13.7754 47.8294 12.0073L 47.8294 11.9409L 54.2625 11.9409L 54.2625 11.3931C 54.2625 8.6123 52.7933 6.89404 50.3777 6.89404C 47.9207 6.89404 46.3436 8.72021 46.3436 11.5342C 46.3436 14.3647 47.8958 16.1577 50.3777 16.1577C 52.3367 16.1577 53.7146 15.2197 54.1463 13.6841L 52.7186 13.6841ZM 63.498 9.79102C 63.249 8.19727 61.9209 6.89404 59.7461 6.89404C 57.2392 6.89404 55.6455 8.70361 55.6455 11.4927C 55.6455 14.3398 57.2475 16.1577 59.7544 16.1577C 61.9043 16.1577 63.2407 14.9458 63.498 13.3022L 62.0537 13.3022C 61.788 14.3149 60.9497 14.8711 59.7461 14.8711C 58.1523 14.8711 57.123 13.5596 57.123 11.4927C 57.123 9.46729 58.1357 8.18066 59.7461 8.18066C 61.0327 8.18066 61.8213 8.90283 62.0537 9.79102L 63.498 9.79102ZM 68.7657 8.15576C 70.1852 8.15576 71.1315 9.20166 71.1647 10.7871L 66.234 10.7871C 66.3419 9.20166 67.338 8.15576 68.7657 8.15576ZM 71.1232 13.6841C 70.7496 14.4727 69.9694 14.896 68.8155 14.896C 67.2965 14.896 66.3087 13.7754 66.234 12.0073L 66.234 11.9409L 72.6671 11.9409L 72.6671 11.3931C 72.6671 8.6123 71.1979 6.89404 68.7823 6.89404C 66.3253 6.89404 64.7482 8.72021 64.7482 11.5342C 64.7482 14.3647 66.3004 16.1577 68.7823 16.1577C 70.7413 16.1577 72.1193 15.2197 72.5509 13.6841L 71.1232 13.6841ZM 74.5315 16L 75.9593 16L 75.9593 7.05176L 74.5315 7.05176L 74.5315 16ZM 75.2454 5.23389C 75.7932 5.23389 76.2415 4.78564 76.2415 4.23779C 76.2415 3.68994 75.7932 3.2417 75.2454 3.2417C 74.6975 3.2417 74.2493 3.68994 74.2493 4.23779C 74.2493 4.78564 74.6975 5.23389 75.2454 5.23389ZM 82.6298 6.89404C 81.4096 6.89404 80.3388 7.5166 79.7661 8.5459L 79.6332 8.5459L 79.6332 7.05176L 78.2719 7.05176L 78.2719 18.9883L 79.6996 18.9883L 79.6996 14.6553L 79.8325 14.6553C 80.3222 15.6016 81.3515 16.1577 82.6298 16.1577C 84.9042 16.1577 86.3901 14.3232 86.3901 11.5259C 86.3901 8.71191 84.9125 6.89404 82.6298 6.89404ZM 82.2895 14.8711C 80.6791 14.8711 79.6581 13.5762 79.6581 11.5259C 79.6581 9.46729 80.6791 8.18066 82.2978 8.18066C 83.933 8.18066 84.9125 9.43408 84.9125 11.5259C 84.9125 13.6177 83.933 14.8711 82.2895 14.8711ZM 88.8189 4.73584L 88.8189 7.05176L 87.3746 7.05176L 87.3746 8.24707L 88.8189 8.24707L 88.8189 13.6758C 88.8189 15.3857 89.5577 16.0664 91.4005 16.0664C 91.6827 16.0664 91.9566 16.0332 92.2389 15.9834L 92.2389 14.7798C 91.9732 14.8047 91.8321 14.813 91.5748 14.813C 90.6451 14.813 90.2467 14.3647 90.2467 13.3105L 90.2467 8.24707L 92.2389 8.24707L 92.2389 7.05176L 90.2467 7.05176L 90.2467 4.73584L 88.8189 4.73584ZM 93.9041 18.5483L 98.3035 3.49902L 97.0418 3.49902L 92.6423 18.5483L 93.9041 18.5483ZM 100.915 16L 100.915 4.02197L 99.4208 4.02197L 99.4208 16L 100.915 16ZM 103.377 16L 104.805 16L 104.805 10.7041C 104.805 9.13525 105.726 8.18066 107.154 8.18066C 108.582 8.18066 109.262 8.94434 109.262 10.5547L 109.262 16L 110.69 16L 110.69 10.2061C 110.69 8.08105 109.569 6.89404 107.561 6.89404C 106.191 6.89404 105.319 7.4751 104.871 8.46289L 104.738 8.46289L 104.738 7.05176L 103.377 7.05176L 103.377 16ZM 119.867 7.05176L 118.34 7.05176L 115.891 14.4229L 115.759 14.4229L 113.31 7.05176L 111.782 7.05176L 115.094 16L 116.555 16L 119.867 7.05176ZM 124.712 16.1577C 127.26 16.1577 128.837 14.3979 128.837 11.5259C 128.837 8.64551 127.26 6.89404 124.712 6.89404C 122.163 6.89404 120.586 8.64551 120.586 11.5259C 120.586 14.3979 122.163 16.1577 124.712 16.1577ZM 124.712 14.8711C 123.018 14.8711 122.064 13.6426 122.064 11.5259C 122.064 9.40088 123.018 8.18066 124.712 8.18066C 126.405 8.18066 127.36 9.40088 127.36 11.5259C 127.36 13.6426 126.405 14.8711 124.712 14.8711ZM 130.702 16L 132.129 16L 132.129 7.05176L 130.702 7.05176L 130.702 16ZM 131.416 5.23389C 131.963 5.23389 132.412 4.78564 132.412 4.23779C 132.412 3.68994 131.963 3.2417 131.416 3.2417C 130.868 3.2417 130.419 3.68994 130.419 4.23779C 130.419 4.78564 130.868 5.23389 131.416 5.23389ZM 141.846 9.79102C 141.597 8.19727 140.269 6.89404 138.094 6.89404C 135.588 6.89404 133.994 8.70361 133.994 11.4927C 133.994 14.3398 135.596 16.1577 138.103 16.1577C 140.253 16.1577 141.589 14.9458 141.846 13.3022L 140.402 13.3022C 140.136 14.3149 139.298 14.8711 138.094 14.8711C 136.501 14.8711 135.471 13.5596 135.471 11.4927C 135.471 9.46729 136.484 8.18066 138.094 8.18066C 139.381 8.18066 140.17 8.90283 140.402 9.79102L 141.846 9.79102ZM 147.114 8.15576C 148.534 8.15576 149.48 9.20166 149.513 10.7871L 144.582 10.7871C 144.69 9.20166 145.686 8.15576 147.114 8.15576ZM 149.472 13.6841C 149.098 14.4727 148.318 14.896 147.164 14.896C 145.645 14.896 144.657 13.7754 144.582 12.0073L 144.582 11.9409L 151.016 11.9409L 151.016 11.3931C 151.016 8.6123 149.546 6.89404 147.131 6.89404C 144.674 6.89404 143.097 8.72021 143.097 11.5342C 143.097 14.3647 144.649 16.1577 147.131 16.1577C 149.09 16.1577 150.468 15.2197 150.899 13.6841L 149.472 13.6841Z"/>
<path id="path16_fill" fill-rule="evenodd" d="M 0 6.53009L 0 6.96313L 34.5 6.96313L 34.5 6.53009C 34.5 5.32715 33.5801 4.35199 32.4452 4.35199L 27.5356 4.35199C 26.7744 4.28064 26.0642 4.12708 25.5724 3.82129C 24.9644 3.44318 24.5756 2.78522 24.1829 2.12073C 23.5612 1.0686 22.9297 0 21.4031 0L 17.2715 0L 13.1398 0C 11.6132 0 10.9817 1.0686 10.36 2.12073C 9.96729 2.78522 9.57849 3.44318 8.97046 3.82129C 8.47864 4.12708 7.76843 4.28064 7.0072 4.35199L 2.05481 4.35199C 0.922852 4.35199 0 5.32715 0 6.53009ZM 3.828 2.48682C 3.35706 2.48682 2.97656 2.82086 2.97656 3.23285L 2.97656 3.97894L 6.94531 3.97894L 6.94531 3.23285C 6.94531 2.81799 6.56421 2.48682 6.09399 2.48682L 3.828 2.48682ZM 34.5 7.46051L 0 7.46051L 0 24.8684L 34.5 24.8684L 34.5 7.46051ZM 0 25.9392C 0 27.0773 0.919922 28 2.05481 28L 32.4452 28C 33.5771 28 34.5 27.0773 34.5 25.9392L 34.5 25.5294L 0 25.5294L 0 25.9392ZM 24.8481 16.0588C 24.8481 11.8517 21.4463 8.44116 17.25 8.44116C 13.0536 8.44116 9.65173 11.8517 9.65173 16.0588C 9.65173 20.2659 13.0536 23.6765 17.25 23.6765C 21.4463 23.6765 24.8481 20.2659 24.8481 16.0588ZM 17.25 9.67645C 13.7341 9.67645 10.8839 12.5339 10.8839 16.0588C 10.8839 19.5837 13.7341 22.4412 17.25 22.4412C 20.7659 22.4412 23.6161 19.5837 23.6161 16.0588C 23.6161 12.5339 20.7659 9.67645 17.25 9.67645ZM 25.3253 9.84597C 25.779 9.84597 26.1468 9.47727 26.1468 9.02244C 26.1468 8.56762 25.779 8.19891 25.3253 8.19891C 24.8717 8.19891 24.5039 8.56762 24.5039 9.02244C 24.5039 9.47727 24.8717 9.84597 25.3253 9.84597Z"/>
<path id="path17_fill" fill-rule="evenodd" d="M 0 0L 3.5 0L 3.59998 0L 32.25 0L 32.25 4L 3.59998 4L 3.59998 23.5L 0 23.5L 0 0ZM 4.5 5L 36.5 5L 36.5 28L 4.5 28L 4.5 5Z"/>
<path id="path18_fill" fill-rule="evenodd" d="M 0 0L 0 20L 375 20L 375 0L 0 0Z"/>
<path id="path19_fill" fill-rule="evenodd" d="M 20.9971 0L 1.50293 0C 0.672852 0 0 0.66803 0 1.50006L 0 7.99994C 0 8.82843 0.673828 9.5 1.50293 9.5L 20.9971 9.5C 21.8271 9.5 22.5 8.83197 22.5 7.99994L 22.5 1.50006C 22.5 0.67157 21.8262 0 20.9971 0ZM 0.5 1.50006C 0.5 0.94574 0.947266 0.5 1.50293 0.5L 20.9971 0.5C 21.5508 0.5 22 0.948181 22 1.50006L 22 7.99994C 22 8.55426 21.5527 9 20.9971 9L 1.50293 9C 0.949219 9 0.5 8.55182 0.5 7.99994L 0.5 1.50006Z"/>
<path id="path20_fill" fill-rule="evenodd" d="M 0.5 0C 0.223858 0 0 0.223858 0 0.5L 0 7C 0 7.27614 0.223858 7.5 0.5 7.5L 9 7.5L 9 0L 0.5 0Z"/>
<path id="path21_fill" fill-rule="evenodd" d="M 1.5 1.75C 1.5 2.64064 0.848073 3.37745 0 3.5L 0 0C 0.848073 0.122548 1.5 0.859362 1.5 1.75Z"/>
<path id="path22_fill" d="M 3.73242 11.1992C 5.48438 11.1992 6.68555 10.0273 6.68555 8.31055C 6.68555 6.64648 5.56055 5.48047 3.95508 5.48047C 3.17578 5.48047 2.57812 5.7207 2.16797 6.20117L 2.07422 6.20117L 2.31445 3.48828L 6.20508 3.48828L 6.20508 2.54492L 1.48828 2.54492L 1.02539 7.33789L 2.01562 7.33789C 2.36133 6.73438 2.99414 6.38867 3.76172 6.38867C 4.86914 6.38867 5.63086 7.17969 5.63086 8.33984C 5.63086 9.5 4.875 10.2734 3.74414 10.2734C 2.74805 10.2734 2.02148 9.66406 1.92773 8.75L 0.890625 8.75C 0.984375 10.209 2.13281 11.1992 3.73242 11.1992ZM 11.2617 11.1992C 13.0547 11.1992 14.3086 10.1855 14.3086 8.73828C 14.3086 7.63672 13.6113 6.78125 12.5508 6.58203L 12.5508 6.48828C 13.4238 6.24805 13.9629 5.52734 13.9629 4.60156C 13.9629 3.2832 12.8438 2.3457 11.2617 2.3457C 9.67969 2.3457 8.56055 3.2832 8.56055 4.60156C 8.56055 5.52148 9.11133 6.25391 9.97266 6.48828L 9.97266 6.58203C 8.91211 6.78125 8.21484 7.63672 8.21484 8.73828C 8.21484 10.1855 9.46875 11.1992 11.2617 11.1992ZM 11.2617 10.2969C 10.0898 10.2969 9.28125 9.62891 9.28125 8.66211C 9.28125 7.69531 10.0898 7.02734 11.2617 7.02734C 12.4336 7.02734 13.2422 7.69531 13.2422 8.66211C 13.2422 9.62891 12.4336 10.2969 11.2617 10.2969ZM 11.2617 6.13672C 10.2656 6.13672 9.59766 5.5625 9.59766 4.70117C 9.59766 3.82812 10.2598 3.24805 11.2617 3.24805C 12.2637 3.24805 12.9258 3.82812 12.9258 4.70117C 12.9258 5.5625 12.2578 6.13672 11.2617 6.13672ZM 25.6465 10.3965C 25.125 10.3965 24.7793 9.88672 24.7793 9.10742C 24.7793 8.32812 25.1191 7.82422 25.6465 7.82422C 26.1738 7.82422 26.5078 8.31641 26.5078 9.10742C 26.5078 9.88086 26.1621 10.3965 25.6465 10.3965ZM 25.6465 11.1465C 26.7012 11.1465 27.4453 10.3027 27.4453 9.10742C 27.4453 7.91211 26.7012 7.07422 25.6465 7.07422C 24.5918 7.07422 23.8418 7.91797 23.8418 9.10742C 23.8418 10.3027 24.5918 11.1465 25.6465 11.1465ZM 20.7539 6.4707C 21.8086 6.4707 22.5527 5.62695 22.5527 4.43164C 22.5527 3.23633 21.8086 2.39844 20.7539 2.39844C 19.6992 2.39844 18.9492 3.24219 18.9492 4.43164C 18.9492 5.62695 19.6992 6.4707 20.7539 6.4707ZM 20.6602 11L 23.5605 7.0332L 26.8418 2.54492L 25.7754 2.54492L 22.8105 6.59375L 19.582 11L 20.6602 11ZM 20.7539 5.7207C 20.2324 5.7207 19.8867 5.21094 19.8867 4.43164C 19.8867 3.65234 20.2266 3.14844 20.7539 3.14844C 21.2812 3.14844 21.6152 3.64062 21.6152 4.43164C 21.6152 5.20508 21.2695 5.7207 20.7539 5.7207Z"/>
<path id="path23_fill" fill-rule="evenodd" d="M 4.68945 10.8516L 4.68945 7.29907L 6.50267 9.16055L 4.68945 10.8516ZM 6.58591 3.84038L 4.68945 5.6388L 4.68945 2.23163L 6.58591 3.84038ZM 5.1451 6.50048L 7.95913 3.84041L 3.76051 0L 3.66133 0L 3.66133 5.34133L 0.811414 2.52481L 0 3.32389L 3.42907 6.50048L 0 9.67659L 0.811414 10.4757L 3.66133 7.65915L 3.66133 13L 3.84275 13L 8 9.14997L 5.1451 6.50048Z"/>
<path id="path24_fill" d="M 3.75586 11.2051C 5.87109 11.2051 7.10742 9.52344 7.10742 6.6582C 7.10742 5.63281 6.93164 4.76562 6.58594 4.08594C 6.04102 2.94922 5.05664 2.33984 3.80859 2.33984C 2.01562 2.33984 0.744141 3.56445 0.744141 5.29297C 0.744141 6.92188 1.91602 8.11133 3.52734 8.11133C 4.5293 8.11133 5.33789 7.64258 5.74219 6.82812L 5.76562 6.82812C 5.76562 6.82812 5.78906 6.82812 5.79492 6.82812C 5.80078 6.82812 5.8418 6.82812 5.8418 6.82812C 5.81836 8.86719 5.0625 10.0391 3.76758 10.0391C 2.99414 10.0391 2.39648 9.61719 2.19141 8.92578L 0.867188 8.92578C 1.125 10.3086 2.25586 11.2051 3.75586 11.2051ZM 3.81445 6.99805C 2.77734 6.99805 2.05078 6.27148 2.05078 5.24609C 2.05078 4.25586 2.81836 3.49414 3.82617 3.49414C 4.82812 3.49414 5.5957 4.26172 5.5957 5.27539C 5.5957 6.27148 4.8457 6.99805 3.81445 6.99805ZM 8.85938 9.23047C 8.85938 9.77539 9.22852 10.1562 9.7793 10.1562C 10.3242 10.1562 10.6875 9.77539 10.6875 9.23047C 10.6875 8.68555 10.3242 8.30469 9.7793 8.30469C 9.22852 8.30469 8.85938 8.68555 8.85938 9.23047ZM 8.85938 4.76562C 8.85938 5.31055 9.22852 5.69141 9.7793 5.69141C 10.3242 5.69141 10.6875 5.31055 10.6875 4.76562C 10.6875 4.2207 10.3242 3.83984 9.7793 3.83984C 9.22852 3.83984 8.85938 4.2207 8.85938 4.76562ZM 16.5234 11L 17.7891 11L 17.7891 9.36523L 18.9551 9.36523L 18.9551 8.19336L 17.7891 8.19336L 17.7891 2.54492L 15.9199 2.54492C 14.4141 4.80078 13.1543 6.76367 12.3984 8.14648L 12.3984 9.36523L 16.5234 9.36523L 16.5234 11ZM 13.6582 8.14062C 14.6543 6.41211 15.627 4.91211 16.4648 3.69922L 16.541 3.69922L 16.541 8.22266L 13.6582 8.22266L 13.6582 8.14062ZM 22.4531 11L 23.7656 11L 23.7656 2.54492L 22.459 2.54492L 20.2324 4.11523L 20.2324 5.45703L 22.3535 3.95703L 22.4531 3.95703L 22.4531 11ZM 35.127 11L 36.5215 11L 33.4688 2.54492L 32.0566 2.54492L 29.0039 11L 30.3516 11L 31.1309 8.75586L 34.3535 8.75586L 35.127 11ZM 32.6953 4.08008L 32.7949 4.08008L 34.0195 7.6543L 31.4648 7.6543L 32.6953 4.08008ZM 39.2168 11L 39.2168 4.89453L 39.2988 4.89453L 41.7773 10.7539L 42.7734 10.7539L 45.252 4.89453L 45.334 4.89453L 45.334 11L 46.5527 11L 46.5527 2.54492L 45.0176 2.54492L 42.3223 8.9668L 42.2227 8.9668L 39.5332 2.54492L 37.998 2.54492L 37.998 11L 39.2168 11Z"/>
<path id="path25_fill" fill-rule="evenodd" d="M 5.99575 1.52088C 7.93552 1.52088 9.70336 2.23545 11.0589 3.40718L 12 2.36811C 10.3946 0.974466 8.29789 0 5.99575 0C 3.69711 0 1.6034 0.971507 0 2.36071L 0.939148 3.40126C 2.29364 2.23299 4.05848 1.52088 5.99575 1.52088ZM 5.99542 4.5202C 7.15799 4.5202 8.22009 4.94233 9.03928 5.63768L 10.0349 4.53795C 8.95132 3.60787 7.54184 3.00031 5.99542 3.00031C 4.452 3.00031 3.04353 3.60639 1.96094 4.53351L 2.95506 5.63472C 3.77376 4.94085 4.83436 4.5202 5.99542 4.5202ZM 8.04318 6.73743C 7.48889 6.27732 6.77516 5.95874 5.99495 5.95874C 5.21624 5.95874 4.50351 6.27682 3.94922 6.73496L 5.99495 9L 8.04318 6.73743Z"/>
<path id="path26_fill" d="M 8.17383 7.73047L 8.17383 6.69922L 4.74609 6.69922L 4.74609 7.625L 7.125 7.625L 7.125 7.83008C 7.125 9.25977 6.09961 10.2266 4.58789 10.2266C 2.88867 10.2266 1.83398 8.90234 1.83398 6.76953C 1.83398 4.66602 2.90625 3.31836 4.58203 3.31836C 5.83594 3.31836 6.68555 3.92188 7.04883 5.06445L 8.12109 5.06445C 7.81641 3.38867 6.45703 2.3457 4.58203 2.3457C 2.26758 2.3457 0.75 4.09766 0.75 6.76953C 0.75 9.47656 2.24414 11.1992 4.58203 11.1992C 6.74414 11.1992 8.17383 9.81641 8.17383 7.73047ZM 9.63867 8.79102C 9.75 10.25 10.9863 11.1992 12.7793 11.1992C 14.7129 11.1992 15.9375 10.209 15.9375 8.65625C 15.9375 7.41406 15.2344 6.73438 13.4824 6.29492L 12.5977 6.06055C 11.4316 5.76172 10.9688 5.38086 10.9688 4.71875C 10.9688 3.86328 11.7129 3.30078 12.8379 3.30078C 13.8926 3.30078 14.6074 3.81641 14.7539 4.68359L 15.8145 4.68359C 15.7266 3.31836 14.5078 2.3457 12.873 2.3457C 11.0859 2.3457 9.88477 3.31836 9.88477 4.75391C 9.88477 5.95508 10.5469 6.64648 12.0762 7.0332L 13.1602 7.31445C 14.3262 7.60742 14.8535 8.06445 14.8535 8.78516C 14.8535 9.62305 14.0156 10.2383 12.8789 10.2383C 11.6777 10.2383 10.834 9.67578 10.7051 8.79102L 9.63867 8.79102Z"/>
<path id="path27_fill" fill-rule="evenodd" d="M 0 2.75C 0 4.2688 1.23145 5.5 2.75 5.5C 4.26855 5.5 5.5 4.2688 5.5 2.75C 5.5 1.2312 4.26855 0 2.75 0C 1.23145 0 0 1.2312 0 2.75ZM 5 2.75C 5 3.99261 3.99219 5 2.75 5C 1.50781 5 0.5 3.99261 0.5 2.75C 0.5 1.50739 1.50781 0.5 2.75 0.5C 3.99219 0.5 5 1.50739 5 2.75Z"/>
<path id="path28_fill" fill-rule="evenodd" d="M 2.75 5.5C 4.26878 5.5 5.5 4.26878 5.5 2.75C 5.5 1.23122 4.26878 0 2.75 0C 1.23122 0 0 1.23122 0 2.75C 0 4.26878 1.23122 5.5 2.75 5.5Z"/>
</defs>
</svg>
